::General::
Complete name: Forrest Gump 1994 720p BrRip x264 (6Ch) [Dual-Audio] Eng-Hin NimitMak SilverRG
Director: Robert Zemeckis
Format: MPEG-4
File size: 1.11 GiB
Duration: 2h 22mn
Overall Bitrate: 1121 Kbps
Language: Dual Audio [English-Hindi]
Sub Title: (Embedded + .srt) Can Be Turned off [English]
Encoded date: 2012-10-06
Writing application: MeGui
Writing library: x264 core 100 r1659 57b2e56
Encoder: NimitMak
Source: BrRip YIFY (Thanks)



::IMDB INFO::
IMDB Link:http://www.imdb.com/title/tt0109830/
IMDB Rating:8.7/10
Release Date:6 July 1994 (USA)
Genre: Drama | Romance 
YouTube



::Video::
ID: 1
Format: AVC
Format/Info: Advanced Video Codec
Format profile: High@L4.0
Format settings, CABAC: Yes
Format settings, ReFrames: 8 frames
Codec ID: V_MPEG4/ISO/AVC
Nominal Bitrate: 742 Kbps/10.5 Mbps(Max)
Width: 1280 pixels
Height: 544 pixels
Display aspect ratio: 2.35:1
Frame rate: 23.976 fps
Color space: YUV
Chroma subsampling: 4:2:0
Bit depth: 8 bits
Scan type: Progressive
Writing library: x264 core 100 r1659 57b2e56



::Audio #1::
ID: 2
Format: AC-3
Format/Info: Audio Coding 3
Mode extension: CM (complete main)
Codec ID: ac-3
Duration: 2h 22mn
Bit rate mode: Constant
Bit rate: 192 Kbps
Channel(s): 6 channels
Channel positions: Front: L C R, Side: L R, LFE
Sampling rate: 48.0 KHz
Bit depth: 16 bits
Compression mode: Lossy
Stream size: 195 MiB (17%)
Title: English - NimitMak SilverRG

::Audio #2::
ID: 3
Format: AC-3
Format/Info: Audio Coding 3
Mode extension: CM (complete main)
Codec ID: ac-3
Duration: 2h 15mn
Bit rate mode: Constant
Bit rate: 192 Kbps
Channel(s): 6 channels
Channel positions: Front: L C R, Side: L R, LFE
Sampling rate: 44.1 KHz
Bit depth: 16 bits
Compression mode : Lossy
Stream size: 186 MiB (16%)
Title: Hindi - NimitMak SilverRG

::Text #1::
ID: 4
Format: Timed text
Codec ID: tx3g
Duration: 2h 14mn
Bit rate mode: Variable
Bit rate: 66 bps
Stream size: 64.9 KiB (0%)
Title: English - NimitMak SilverRG

Screens :
 
http://postimage.org/image/qesvbucsv/ 
http://postimage.org/image/veuwxj7tb/ 
http://postimage.org/image/4elpmp8wf/ 
http://postimage.org/image/c4x35l0lr/ 
http://postimage.org/image/ara1o0qq7/ 
http://postimage.org/image/hbctud4r3/ 
http://postimage.org/image/4y4l174gf/ 
http://postimage.org/image/dlmdsy7nz/ 
http://postimage.org/image/qsbtsh3db/ 
http://postimage.org/image/5wpjh8767/ 
http://postimage.org/image/y3bxic95b/ 
http://postimage.org/image/jf11798pb/ 
http://www.shotpix.com/images/77283769572083667440.jpg